<svg width="96" height="37" viewBox="0 0 96 37" fill="none" xmlns="http://www.w3.org/2000/svg">
<path d="M33.6426 25.96L31.9463 28.9951L18.5898 21.4521V36.6553H15.0938V21.4521L1.7998 28.9844L0.0771484 26.0557L0.142578 25.9316L16.8682 16.3623L33.6426 25.96ZM85.8428 22.7314C87.6993 22.7316 89.2039 24.2293 89.2041 26.0771C89.2041 27.9252 87.6994 29.4237 85.8428 29.4238C83.986 29.4238 82.4805 27.9253 82.4805 26.0771C82.4807 24.2292 83.9861 22.7314 85.8428 22.7314ZM52.8926 29.248H51.5332V28.4102C49.8721 30.2647 46.9002 29.3802 46.2725 27.0439C45.3982 23.789 49.1279 21.2092 51.5332 23.7725V20.4229H52.8926V29.248ZM64.374 22.749C65.0775 22.7539 65.8409 22.9613 66.3867 23.3857C66.5668 23.5257 67.1726 24.1285 67.1895 24.3311C67.2028 24.4963 66.2421 24.9295 66.0693 25.0586C64.8039 23.0906 61.8634 24.3759 62.5029 26.6709C62.8617 27.9578 64.4666 28.4648 65.5352 27.6895C65.7786 27.5128 65.9062 27.2672 66.127 27.1182L67.2559 27.7969C65.3292 30.7931 60.7139 29.3444 61.0498 25.6729C61.1936 24.0996 62.5113 22.8805 64.0771 22.7598L64.374 22.749ZM67.7617 27.043C66.8861 23.7835 70.6162 21.2148 73.0215 23.7715V22.9346H74.3818V29.2471H73.0225V28.4092C71.3575 30.263 68.3901 29.3831 67.7617 27.043ZM55.6113 26.959C55.6113 27.0041 55.7751 27.4602 55.8154 27.5293C56.2442 28.2698 57.6455 28.2795 58.2012 27.668C58.3999 27.4493 58.6541 26.8572 58.6543 26.5732V22.9336H60.0137V29.2471H58.6543V28.4736C57.6744 29.8412 55.2108 29.6897 54.499 28.1318C54.4534 28.0323 54.2535 27.4718 54.2529 27.4111V22.9336H55.6113V26.959ZM77.6836 22.9326H79.2373V24.2207H77.6836V27.5381C77.6836 27.7071 78.0644 28.0215 78.2334 28.0215H79.2363V29.2451C78.386 29.358 77.1586 29.3882 76.6191 28.5967C76.5406 28.4813 76.3243 27.9661 76.3242 27.8604V24.3174L76.2266 24.2197H75.1592V22.9316H76.2266L76.3242 22.835V21.5146L77.6836 21.1934V22.9326ZM45.4502 21.7744H41.5664V24.0938H45.127V25.4463H41.6641L41.5664 25.543V27.8311H45.5146V29.248H40.1748L40.0781 29.1514V20.5186L40.1748 20.4219H45.4502V21.7744ZM91.5986 23.6426C92.6128 22.347 94.9699 22.4574 95.707 23.9658C95.7678 24.0908 95.9993 24.7402 96 24.834V29.248H94.6406V25.2861C94.6406 25.2224 94.5137 24.8325 94.4727 24.7451C94.0018 23.7466 92.3891 23.8337 91.8438 24.7568C91.7732 24.8768 91.5989 25.3664 91.5986 25.4785V29.2471H90.2393V22.9336H91.5986V23.6426ZM81.502 29.2461H80.1426V22.9326H81.502V29.2461ZM49.5322 24.0654C48.4132 24.0655 47.5059 24.9687 47.5059 26.082C47.506 27.1953 48.4133 28.0986 49.5322 28.0986C50.6513 28.0986 51.5585 27.1953 51.5586 26.082C51.5586 24.968 50.6513 24.0654 49.5322 24.0654ZM71.0205 24.0635C69.9015 24.0636 68.9941 24.9671 68.9941 26.0811C68.9942 27.1949 69.9015 28.0976 71.0205 28.0977C72.1396 28.0977 73.0468 27.195 73.0469 26.0811C73.0469 24.967 72.1396 24.0635 71.0205 24.0635ZM85.8408 24.0938C84.7393 24.0938 83.8459 24.9827 83.8457 26.0791C83.8457 27.1757 84.7392 28.0654 85.8408 28.0654C86.9423 28.0653 87.835 27.1756 87.835 26.0791C87.8348 24.9828 86.9422 24.0939 85.8408 24.0938ZM80.833 20.2285C81.3198 20.2286 81.7139 20.621 81.7139 21.1055C81.7138 21.5899 81.3197 21.9824 80.833 21.9824C80.3462 21.9824 79.9512 21.5899 79.9512 21.1055C79.9512 20.621 80.3462 20.2285 80.833 20.2285ZM45.5117 14.6582C44.5636 11.8934 47.0865 9.31096 49.8506 10.3398C50.7365 10.6702 51.8573 11.9491 51.8574 12.916V13.9473L51.7607 14.0439H46.8096C47.0079 15.6901 49.5382 16.0434 50.4053 14.7471C50.7641 14.9174 51.104 15.1252 51.4512 15.3174C51.5093 15.3491 51.5583 15.2942 51.5254 15.4189C51.4354 15.7557 50.6894 16.3106 50.3701 16.4609C48.6073 17.2902 46.1743 16.5899 45.5117 14.6582ZM60.9482 14.3037C60.2151 11.0887 63.7788 8.70752 66.2256 11.0801V10.3076H67.5527L67.6504 10.4043V16.5234L67.5527 16.6201H66.2256V15.7832C64.5754 17.6988 61.4956 16.7013 60.9482 14.3037ZM52.6504 12.4492C52.2009 9.82766 56.294 9.36772 57.2939 11.4287L56.1318 12.1094C55.9436 11.1685 53.8243 11.0953 54.0723 12.1924C54.1927 12.7257 55.6904 12.9316 56.1738 13.1289C57.1343 13.5211 57.5459 14.114 57.4248 15.1699C57.18 17.3077 52.9381 17.2615 52.3799 15.2715L53.6045 14.6221C53.7133 15.5566 55.4799 15.8446 55.9355 15.1709C56.5765 14.2216 54.4291 13.9575 53.8857 13.7324C53.323 13.4996 52.7606 13.0897 52.6504 12.4492ZM45.9033 9.14746H43.4756L43.3779 9.24414V16.6201H41.9863L41.8896 16.5234V9.14746H39.4307V7.79395H45.9033V9.14746ZM59.8184 16.6191H58.459V7.40625H59.8184V16.6191ZM33.7178 10.7285L23.6094 16.5488L21.8223 13.4688L31.9307 7.64844L33.7178 10.7285ZM11.9219 13.4736L10.1504 16.5361L0 10.7109L1.77148 7.64844L11.9219 13.4736ZM64.2441 11.4492C63.127 11.4492 62.2208 12.3508 62.2207 13.4629C62.2207 14.575 63.127 15.4766 64.2441 15.4766C65.3611 15.4763 66.2666 14.5748 66.2666 13.4629C66.2665 12.351 65.3611 11.4495 64.2441 11.4492ZM50.4336 12.9482C50.2808 11.133 47.7182 10.8276 46.9268 12.3887C46.8626 12.5153 46.6968 12.867 46.8418 12.9482H50.4336ZM18.5889 11.5957H15.0938V0H18.5889V11.5957Z" fill="white"/>
</svg>
